<svg id="Capa_1" xmlns="http://www.w3.org/2000/svg" viewBox="0 0 173 56"><style>.st1{fill:#e62644}.st3{fill:#004996}</style><path d="M29.69 16.5c-.23 0-.42-.19-.42-.42 0-.23.19-.42.42-.42.23 0 .42.19.42.42 0 .23-.19.42-.42.42zM4.87 35.89c0-9.27 7.62-16.81 16.93-16.81 9.31 0 16.93 7.54 16.93 16.81 0 9.25-7.62 16.81-16.93 16.81-9.31 0-16.93-7.57-16.93-16.81zm23.57-25.66c.4.1.65.51.54.91-.1.4-.51.64-.92.54-.4-.1-.65-.51-.54-.91.1-.4.51-.64.92-.54zm.68-1.47c.23 0 .42.19.42.42 0 .23-.19.42-.42.42-.23 0-.42-.19-.42-.42 0-.23.19-.42.42-.42zm-.35-1.5c.23 0 .42.19.42.42 0 .23-.19.42-.42.42-.23 0-.42-.19-.42-.42 0-.23.19-.42.42-.42zm5.21 3.94c.23 0 .42.19.42.42 0 .23-.19.42-.42.42-.23 0-.42-.19-.42-.42 0-.23.18-.42.42-.42zm-.35-1.49c.23 0 .42.19.42.42 0 .23-.19.42-.42.42-.23 0-.42-.19-.42-.42 0-.23.19-.42.42-.42zM33 8.4c.23 0 .42.19.42.42s-.19.41-.42.41c-.23 0-.42-.19-.42-.42s.19-.41.42-.41zm-.99-1.16c.23 0 .42.19.42.42s-.19.42-.42.42c-.23 0-.42-.19-.42-.42s.18-.42.42-.42zm-1.23-.89c.23 0 .42.19.42.42 0 .23-.19.42-.42.42-.23 0-.42-.19-.42-.42 0-.23.19-.42.42-.42zm-1.32-.51c.23 0 .42.19.42.42 0 .23-.19.42-.42.42-.23 0-.42-.19-.42-.42 0-.23.19-.42.42-.42zm-1.34.11c.23 0 .42.19.42.42 0 .23-.19.42-.42.42-.23 0-.42-.19-.42-.42a.41.41 0 0 1 .42-.42zm-.99-1.13c.23 0 .42.19.42.42 0 .23-.19.42-.42.42-.23 0-.42-.19-.42-.42 0-.23.19-.42.42-.42zm-1.29-.85c.23 0 .42.19.42.42 0 .23-.19.42-.42.42-.23 0-.42-.19-.42-.42 0-.23.19-.42.42-.42zm-1.34-.49c.23 0 .42.19.42.42s-.19.42-.42.42c-.23 0-.42-.19-.42-.42 0-.24.19-.42.42-.42zm-1.37-.24c.23 0 .42.19.42.42 0 .23-.19.42-.42.42-.23 0-.42-.19-.42-.42 0-.23.19-.42.42-.42zM10.14 14.22c-.37.2-.83.07-1.03-.29-.2-.36-.07-.82.3-1.02.37-.2.83-.07 1.03.3.2.36.07.81-.3 1.01zm5.39-2.54a.76.76 0 0 1-.92-.54c-.1-.4.14-.81.54-.91.4-.1.82.14.92.54.11.4-.13.81-.54.91zm6.27-.78c-.42 0-.76-.34-.76-.75s.34-.75.76-.75.76.34.76.75a.77.77 0 0 1-.76.75zm-7.33-1.31c-.23 0-.42-.19-.42-.42 0-.23.19-.42.42-.42.23 0 .42.19.42.42 0 .24-.19.42-.42.42zm.35-1.49c-.23 0-.42-.19-.42-.42 0-.23.19-.42.42-.42.23 0 .42.19.42.42 0 .23-.19.42-.42.42zm-5.2 3.94c-.23 0-.42-.19-.42-.42 0-.23.19-.42.42-.42.23 0 .42.19.42.42 0 .23-.19.42-.42.42zm.35-1.5c-.23 0-.42-.19-.42-.42 0-.23.19-.42.42-.42.23 0 .42.19.42.42 0 .24-.19.42-.42.42zm.62-1.31c-.23 0-.42-.19-.42-.42s.19-.42.42-.42c.23 0 .42.19.42.42s-.18.42-.42.42zm1-1.16c-.23 0-.42-.19-.42-.42s.19-.42.42-.42c.23 0 .42.19.42.42s-.19.42-.42.42zm1.23-.88c-.23 0-.42-.19-.42-.42 0-.23.19-.42.42-.42.23 0 .42.19.42.42 0 .23-.19.42-.42.42zm1.31-.52c-.23 0-.42-.19-.42-.42 0-.23.19-.42.42-.42.23 0 .42.19.42.42.01.24-.18.42-.42.42zm1.35.12c-.23 0-.42-.19-.42-.42 0-.23.19-.42.42-.42.23 0 .42.19.42.42 0 .23-.19.42-.42.42zm.99-1.13c-.23 0-.42-.19-.42-.42 0-.23.19-.42.42-.42.23 0 .42.19.42.42a.43.43 0 0 1-.42.42zm1.28-.85c-.23 0-.42-.19-.42-.42 0-.23.19-.42.42-.42.23 0 .42.19.42.42 0 .23-.18.42-.42.42zm1.34-.5c-.23 0-.42-.19-.42-.42s.19-.42.42-.42c.23 0 .42.19.42.42 0 .24-.19.42-.42.42zM21.8 8.4c-.23 0-.42-.19-.42-.42 0-.23.19-.42.42-.42.23 0 .42.19.42.42 0 .23-.19.42-.42.42zm0-1.51c-.23 0-.42-.19-.42-.42 0-.23.19-.42.42-.42.23 0 .42.19.42.42 0 .23-.19.42-.42.42zm0-1.52c-.23 0-.42-.19-.42-.42 0-.23.19-.42.42-.42.23 0 .42.19.42.42 0 .24-.19.42-.42.42zm-1.33-1.29c-.23 0-.42-.19-.42-.42 0-.23.19-.42.42-.42.23 0 .42.19.42.42a.43.43 0 0 1-.42.42zm13.71 8.83c.37.2.5.65.3 1.02-.2.36-.66.49-1.03.29-.36-.2-.5-.66-.3-1.02s.66-.49 1.03-.29zm-9.69 2.19c-.23 0-.42-.19-.42-.42 0-.23.19-.42.42-.42.23 0 .42.19.42.42 0 .23-.18.42-.42.42zM13.9 16.5c-.23 0-.42-.19-.42-.42 0-.23.19-.42.42-.42.23 0 .42.19.42.42 0 .23-.19.42-.42.42zm5.2-1.4c-.23 0-.42-.19-.42-.42 0-.23.19-.42.42-.42.23 0 .42.19.42.42 0 .23-.19.42-.42.42z" fill="#fff"/><path class="st1" d="M24.92 12.09c.11.25.25.44.42.6-.38-.06-.77-.11-1.16-.14.22-.12.41-.29.55-.48.06.01.13.02.19.02zm-6.25 0c.07 0 .13-.01.19-.02.15.2.34.36.55.48-.39.04-.77.09-1.16.14.19-.16.33-.37.42-.6zm-2.25.96c-.34.08-.68.16-1.01.26.18-.23.29-.51.33-.81.18.24.41.43.68.55zm-3.86 1.25c.1-.16.18-.34.22-.53l.06-.01c.1-.03.19-.07.28-.12.16.11.34.19.52.24-.37.13-.73.27-1.08.42zm9.24-2.57c.11.28.29.53.53.71-.18 0-.35-.01-.53-.01-.18 0-.35 0-.53.01.24-.18.42-.42.53-.71zm8.68 1.91c.08.05.18.1.28.12l.06.01c.04.19.12.37.22.53-.35-.15-.71-.29-1.08-.42.19-.06.36-.13.52-.24zm-2.3-.34c-.33-.09-.67-.18-1.01-.26.27-.12.51-.31.68-.55.03.3.15.58.33.81zm1.31-3.26c.28-.12.5-.37.56-.68.45.1.96.23 1.38.39.39.15.7.36.92.55.23.58.36 1.25.42 2.06-.28.12-.45.4-.55.68-.17.43-.17.87.3 1.2a.743.743 0 0 1-.79-.78c.09-.1.15-.23.19-.37a.943.943 0 0 0-1.83-.46c-.01.06-.02.11-.03.16-.43.52-1.29.25-1.33-.43.79.16 1.13-.24 1.26-.77.12-.45.07-.89-.45-1.17a.9.9 0 0 0-.05-.38z"/><path class="st1" d="M16.09 8.18c1.5-.83 3.47-.98 5-.75v.11a.81.81 0 0 0 .18 1.08c-.28.1-.5.3-.59.68-.57.14-.72.56-.72 1.02 0 .55.22 1.02 1.03 1.06a.75.75 0 1 1-1.42.02.941.941 0 0 0-.92-1.18c-.52 0-.94.42-.94.94 0 .16.04.31.11.45-.02.31-.24.59-.56.68a.755.755 0 0 1-.82-.33c.77-.24.87-.75.73-1.28-.12-.45-.37-.82-.96-.81a.897.897 0 0 0-.42-.42c.06-.45.16-.87.3-1.27zm6.41-.75c1.53-.22 3.49-.08 5 .75.14.4.24.82.29 1.26-.17.08-.31.22-.42.42-.59-.01-.84.36-.96.81-.14.53-.04 1.04.73 1.28a.745.745 0 1 1-1.38-.35c.07-.13.11-.28.11-.45 0-.52-.42-.94-.94-.94a.947.947 0 0 0-.92 1.18.75.75 0 0 1-1.42-.02c.81-.04 1.03-.51 1.03-1.06 0-.46-.16-.88-.72-1.02-.09-.37-.31-.58-.59-.68a.81.81 0 0 0 .18-1.08v-.1zM12.17 9.75c.41-.16.93-.3 1.38-.39.06.31.27.56.56.68-.04.11-.06.24-.06.38-.52.27-.56.72-.45 1.17.14.53.47.93 1.26.77-.03.68-.9.95-1.33.43 0-.05-.01-.11-.03-.16a.951.951 0 0 0-1.15-.68.933.933 0 0 0-.49 1.51c.02.28-.13.55-.39.69-.13.07-.27.1-.41.09.47-.33.46-.77.3-1.2-.11-.28-.28-.56-.56-.68.07-.81.2-1.48.42-2.05.25-.2.56-.4.95-.56zm10.97 4.8l-1.35.5-1.35-.5 1.35-.5 1.35.5zm-10.12 1.81l-.12.47-.05.17-.1-.06-.44-.24.12-.45.02-.1.16.05.41.16zm17.56 0l.57-.21.02.1.11.46-.44.24-.09.05-.05-.17-.12-.47z"/><path d="M28.18 13.3c-.18-.23-.29-.51-.33-.81-.17.25-.41.44-.68.55.34.08.68.17 1.01.26zm2.3.34c-.16.11-.34.19-.52.24.36.13.72.27 1.08.42-.1-.16-.18-.34-.22-.53l-.06-.01c-.1-.03-.19-.07-.28-.12zm-8.68-1.91c-.11.28-.29.53-.53.71.17 0 .35-.01.53-.01.18 0 .35 0 .53.01-.24-.18-.42-.42-.53-.71zm-9.24 2.57c.35-.15.71-.29 1.08-.42-.19-.05-.37-.13-.52-.24-.08.05-.18.1-.28.12l-.06.01c-.05.19-.12.37-.22.53zm3.86-1.25c-.27-.12-.51-.31-.68-.55-.03.3-.15.58-.33.81.34-.1.68-.19 1.01-.26zm2.25-.96c-.09.23-.23.43-.41.6.38-.06.77-.11 1.16-.14-.22-.12-.41-.29-.55-.48-.07.01-.13.02-.2.02zm6.25 0c-.06 0-.13-.01-.19-.02-.15.2-.34.36-.55.48.39.04.77.09 1.16.14-.17-.16-.3-.35-.4-.56l-.02-.04zm9.26.82a.747.747 0 0 0-1.02.3c-.2.36-.07.82.3 1.02.37.2.83.07 1.03-.29.19-.38.05-.83-.31-1.03zm-5.74-2.68a.76.76 0 0 0-.92.54c-.1.4.14.81.54.91.41.1.82-.14.92-.54a.75.75 0 0 0-.54-.91zm.68-1.47c-.23 0-.42.19-.42.42 0 .23.19.42.42.42.23 0 .42-.19.42-.42 0-.23-.18-.42-.42-.42zm-.35-1.5c-.23 0-.42.19-.42.42 0 .23.19.42.42.42.23 0 .42-.19.42-.42a.41.41 0 0 0-.42-.42zm5.21 3.94c-.23 0-.42.19-.42.42 0 .23.19.42.42.42.23 0 .42-.19.42-.42 0-.23-.19-.42-.42-.42zm-.35-1.49c-.23 0-.42.19-.42.42 0 .23.19.42.42.42.23 0 .42-.19.42-.42 0-.23-.19-.42-.42-.42zM33 8.4c-.23 0-.42.19-.42.42s.19.41.42.41c.23 0 .42-.19.42-.42s-.19-.41-.42-.41zm-.99-1.16c-.23 0-.42.19-.42.42s.19.42.42.42c.23 0 .42-.19.42-.42s-.19-.42-.42-.42zm-1.23-.89c-.23 0-.42.19-.42.42 0 .23.19.42.42.42.23 0 .42-.19.42-.42 0-.23-.19-.42-.42-.42zm-1.32-.51c-.23 0-.42.19-.42.42 0 .23.19.42.42.42.23 0 .42-.19.42-.42 0-.23-.19-.42-.42-.42zm-1.34.11c-.23 0-.42.19-.42.42 0 .23.19.42.42.42.23 0 .42-.19.42-.42a.43.43 0 0 0-.42-.42zm-.99-1.13c-.23 0-.42.19-.42.42 0 .23.19.42.42.42.23 0 .42-.19.42-.42 0-.23-.19-.42-.42-.42zm-1.29-.85c-.23 0-.42.19-.42.42 0 .23.19.42.42.42.23 0 .42-.19.42-.42 0-.23-.19-.42-.42-.42zm-1.34-.49c-.23 0-.42.19-.42.42 0 .23.19.42.42.42.23 0 .42-.19.42-.42s-.19-.42-.42-.42zm-1.37-.24c-.23 0-.42.19-.42.42 0 .23.19.42.42.42.23 0 .42-.19.42-.42 0-.23-.19-.42-.42-.42zM10.14 14.22c.37-.2.5-.66.3-1.02s-.66-.5-1.03-.3c-.36.2-.5.65-.3 1.02.21.37.67.5 1.03.3zm5.39-2.54c.4-.1.65-.51.54-.91a.76.76 0 0 0-.92-.54c-.4.1-.65.51-.54.91.11.41.52.65.92.54zm6.27-.78c.42 0 .76-.34.76-.75s-.34-.75-.76-.75-.76.34-.76.75.34.75.76.75zm-7.33-1.31c.23 0 .42-.19.42-.42 0-.23-.19-.42-.42-.42-.23 0-.42.19-.42.42 0 .24.19.42.42.42zm.35-1.49c.23 0 .42-.19.42-.42 0-.23-.19-.42-.42-.42-.23 0-.42.19-.42.42 0 .23.19.42.42.42zm-5.2 3.94c.23 0 .42-.19.42-.42 0-.23-.19-.42-.42-.42-.23 0-.42.19-.42.42 0 .23.19.42.42.42zm.35-1.5c.23 0 .42-.19.42-.42 0-.23-.19-.42-.42-.42-.23 0-.42.19-.42.42 0 .24.18.42.42.42zm.62-1.31c.23 0 .42-.19.42-.42s-.18-.41-.42-.41c-.23 0-.42.19-.42.42s.19.41.42.41zm1-1.16c.23 0 .42-.19.42-.42s-.19-.42-.42-.42c-.23 0-.42.19-.42.42s.19.42.42.42zm1.23-.88c.23 0 .42-.19.42-.42 0-.23-.19-.42-.42-.42-.23 0-.42.19-.42.42 0 .23.18.42.42.42zm1.31-.52c.23 0 .42-.19.42-.42 0-.23-.19-.42-.42-.42-.23 0-.42.19-.42.42 0 .24.19.42.42.42zm1.35.12c.23 0 .42-.19.42-.42 0-.23-.19-.42-.42-.42-.23 0-.42.19-.42.42 0 .23.19.42.42.42zm.99-1.13c.23 0 .42-.19.42-.42 0-.23-.19-.42-.42-.42-.23 0-.42.19-.42.42-.01.23.18.42.42.42zm1.28-.85c.23 0 .42-.19.42-.42 0-.23-.19-.42-.42-.42-.23 0-.42.19-.42.42 0 .23.19.42.42.42zm1.34-.5c.23 0 .42-.19.42-.42 0-.23-.19-.42-.42-.42-.23 0-.42.19-.42.42s.19.42.42.42zM21.8 8.4c.23 0 .42-.19.42-.42 0-.23-.19-.42-.42-.42-.23 0-.42.19-.42.42 0 .23.19.42.42.42zm0-1.51c.23 0 .42-.19.42-.42 0-.23-.19-.42-.42-.42-.23 0-.42.19-.42.42 0 .23.19.42.42.42zm0-1.52c.23 0 .42-.19.42-.42 0-.23-.19-.42-.42-.42-.23 0-.42.19-.42.42 0 .24.19.42.42.42zm-1.33-1.29c.23 0 .42-.19.42-.42 0-.23-.19-.42-.42-.42-.23 0-.42.19-.42.42-.01.23.18.42.42.42zM32.02 14.3c.35.19.62.11.96-.01-.56-.28-.85-.53-.6-1.19.11-.3.26-.52.58-.61-.2-2.56-.92-3.78-3.26-4.94l-.17.05c0 .03.01.06.01.09 0 .35-.19.52-.45.71.42.09.8.28.8.78 0 .42-.28.65-.65.76.12.23.14.33.12.59.48.23.58.53.46 1.01-.18.69-.6.76-1.26.59-.1 1.07 1.09 1.48 1.67.71 0-.06.01-.12.02-.19.11-.41.52-.65.93-.55.41.1.66.52.55.93-.03.13-.1.24-.19.34-.03.39.14.74.48.93zM21.14 4.96c0-.05.01-.11.01-.17-3.06-.22-5.25 1.85-5.55 4.76.27.11.37.23.5.49.53-.03.77.18.89.67.18.69-.16.95-.81 1.12.2.45.6.75 1.12.61.42-.11.69-.47.69-.89a.812.812 0 0 1-.12-.4c0-.42.34-.76.77-.76.42 0 .77.34.77.76 0 .08-.02.16-.04.24.12.4.46.68.9.68.54 0 .85-.39.93-.87-.68 0-1.07-.18-1.07-.89 0-.5.18-.77.7-.87.12-.63.44-.67.97-.75.53.09.85.13.97.75.52.1.7.37.7.87 0 .71-.39.88-1.07.89.08.48.39.87.93.87.43 0 .77-.28.89-.68-.02-.08-.04-.16-.04-.24 0-.42.34-.76.77-.76.42 0 .76.34.76.76 0 .15-.04.28-.12.4.01.42.27.79.7.89.52.13.92-.17 1.12-.61-.66-.17-.99-.44-.81-1.12.13-.49.37-.7.89-.67.13-.27.22-.39.5-.49-.3-2.92-2.49-4.99-5.55-4.76.01.06.02.11.02.17 0 .15-.05.27-.13.39v.74c.08.12.13.24.13.39 0 .15-.05.27-.13.39l.02.76c.07.1.11.23.11.37 0 .43-.32.57-.65.71-.33-.15-.65-.28-.65-.71 0-.15.05-.27.13-.39v-.75a.676.676 0 0 1-.13-.39c0-.15.05-.27.13-.39v-.74a.573.573 0 0 1-.15-.38zm-9.93 8.14c.25.65-.04.91-.6 1.19.34.12.61.2.96.01s.51-.54.47-.92a.76.76 0 0 1 .36-1.27c.41-.1.83.14.93.55.02.06.02.12.02.19.58.77 1.77.36 1.67-.71-.66.16-1.08.09-1.26-.59-.13-.49-.02-.79.46-1.01-.02-.27 0-.36.12-.59-.37-.11-.65-.34-.65-.75 0-.5.38-.69.79-.78-.25-.19-.45-.36-.45-.71 0-.03 0-.06-.17-.12-2.38 1.17-3.05 2.34-3.25 4.93.35.06.49.28.6.58zm20.24 2.42c-2.93-1.37-6.2-2.14-9.65-2.14s-6.71.76-9.63 2.13c-.19.09-.41.01-.5-.19-.09-.2.01-.34.09-.51-.6.18-1.04.18-1.56-.22-.96.65-2.07-.68-1.34-1.29-.35-.43-.36-.91.14-1.23-.09-.15-.15-.27-.15-.45 0-.5.37-.69.79-.78-.24-.2-.44-.36-.44-.71 0-.51.4-.72.84-.77-.12-.18-.21-.31-.21-.54 0-.42.34-.76.76-.76.13 0 .26.04.38.08-.08-.17-.15-.29-.15-.49 0-.42.34-.76.76-.76.2 0 .33.07.5.16-.01-.09-.04-.2-.04-.29 0-.42.34-.76.76-.76.23 0 .37.09.55.21.09-.4.31-.72.77-.72.34 0 .53.18.7.44.18-.2.35-.33.64-.33.12 0 .23.03.34.06-.06-.15-.11-.27-.11-.43 0-.42.34-.76.76-.76.24 0 .38.1.57.22-.02-.09-.05-.21-.05-.31 0-.42.34-.76.76-.76.24 0 .38.1.57.23.09-.4.31-.73.77-.73.28 0 .44.13.63.31.15-.31.36-.55.74-.55.11 0 .2.03.3.06.26-.24.47-.36.8-.45v-.8h-.64v-.47h.64V.65h.51v.57h.64v.47h-.64v.8c.33.08.54.2.78.47.1-.04.19-.06.3-.06.39 0 .59.23.74.55.19-.18.35-.31.63-.31.46 0 .68.33.77.73.18-.14.32-.23.57-.23.42 0 .76.34.76.76 0 .1-.03.22-.04.31.19-.12.33-.22.57-.22.42 0 .76.34.76.76 0 .16-.06.28-.11.43.11-.03.22-.06.34-.06.29 0 .46.14.64.33.17-.26.36-.44.7-.44.46 0 .69.33.77.72.18-.13.31-.21.55-.21.42 0 .76.34.76.76 0 .09-.02.2-.04.29.17-.09.3-.16.5-.16.42 0 .76.34.76.76 0 .19-.07.32-.15.49.13-.06.26-.1.39-.1.42 0 .76.34.76.76 0 .23-.09.36-.21.54.44.04.84.26.84.77 0 .35-.19.52-.45.71.42.09.79.28.79.78 0 .18-.06.3-.15.45.5.31.5.79.16 1.24.44.36.21.93-.16 1.22-.38.29-.76.35-1.18.07-.52.4-.96.4-1.56.22l.09.18c.15.3-.15.64-.48.52zm-18.29.76l-.62-.23-.05-.1c-.05.02-.09.03-.13.04-.17.01-.16-.17-.07-.21 2.89-1.35 6.1-2.1 9.5-2.1 3.41 0 6.62.75 9.5 2.1.08.04.1.23-.07.21-.03 0-.08-.01-.13-.04l-.05.1-.62.23.18.71-.06.12c.33.15.1.38-.03.32-2.65-1.24-5.6-1.93-8.73-1.93-3.13 0-6.08.69-8.73 1.93-.07.03-.15 0-.19-.08-.04-.08 0-.14.05-.18.03-.02.07-.04.1-.06l-.06-.12.21-.71zm3.45-.52l1.33-.92-1.61-.17-1.33.92 1.61.17zm13.08.85c.3 0 .54-.24.54-.54 0-.3-.24-.54-.54-.54-.3 0-.54.24-.54.54 0 .31.24.54.54.54zM19.1 15.22c.3 0 .54-.24.54-.54 0-.3-.24-.54-.54-.54-.3 0-.54.24-.54.54 0 .3.24.54.54.54zm-5.2 1.39c.3 0 .54-.24.54-.54 0-.3-.24-.54-.54-.54-.3 0-.54.24-.54.54 0 .31.24.54.54.54zm10.59-1.39c.3 0 .54-.24.54-.54 0-.3-.24-.54-.54-.54-.3 0-.54.24-.54.54 0 .3.24.54.54.54zm2.49.54l1.61-.17-1.33-.92-1.61.17 1.33.92zm-3.49-1.21l-1.69-.63-1.69.63 1.69.63 1.69-.63zM4.29 35.89c0 9.56 7.87 17.38 17.51 17.38 9.63 0 17.51-7.82 17.51-17.38 0-9.59-7.87-17.38-17.51-17.38-9.63-.01-17.51 7.79-17.51 17.38zm36.92 0c0 10.61-8.71 19.27-19.41 19.27S2.39 46.49 2.39 35.89c0-10.63 8.71-19.3 19.41-19.3s19.41 8.67 19.41 19.3zM19.25 27.7l2.53 2.57 2.37-2.49c-.83-.22-1.62-.38-2.49-.41-.81-.04-1.63.15-2.41.33zm6.67-1.81l3.72-3.82c4.81 2.74 8.05 7.88 8.05 13.75 0 3.83-1.36 7.33-3.66 10.07l-1.74-1.73c1.95-2.37 3.23-4.73 3.23-8.49 0-4.03-2.12-8.52-5.51-10.85l-2.23 2.27c1.15.85 2.05 1.71 2.82 2.92l-1.71 1.46c-.68-1.18-1.55-2.01-2.67-2.77l-4.45 4.66-4.61-4.73c-2.39 1.66-3.8 4.03-3.86 6.98-.08 3.91 2.47 6.64 6.05 7.82v-7.87h5.46v1.62h-3.35v2.1h3.3v1.85h-3.3v2.65c2.45.13 5.05-1.28 6.64-3.03l1.64 1.64c-2.09 2.41-5.11 3.63-8.27 3.65v2.42h-2.11v-2.68c-4.83-1.19-8.32-5.39-8.25-10.41.04-3.44 1.89-6.26 4.57-8.27l-2.26-2.33c-3.51 2.85-5.39 6.33-5.55 10.85-.12 4 1.96 7.21 3.27 8.56L9.6 45.77c-2.36-2.73-3.74-6.09-3.74-9.94 0-5.83 3.24-10.97 8.01-13.7l3.77 3.9c1.33-.51 2.72-.78 4.16-.78 1.43.02 2.66.28 3.99.78l.13-.14z" fill="#fcbf00"/><path class="st3" d="M41.79 35.89c0 10.92-8.97 19.85-19.99 19.85S1.81 46.81 1.81 35.89c0-10.94 8.97-19.87 19.99-19.87 11.02 0 19.99 8.93 19.99 19.87zm-.58 0c0-10.63-8.71-19.3-19.41-19.3S2.39 25.26 2.39 35.89c0 10.61 8.71 19.27 19.41 19.27s19.41-8.67 19.41-19.27zm-36.34 0c0 9.25 7.62 16.81 16.93 16.81 9.31 0 16.93-7.56 16.93-16.81 0-9.27-7.62-16.81-16.93-16.81-9.31 0-16.93 7.54-16.93 16.81zm-.58 0c0-9.59 7.87-17.38 17.51-17.38 9.63 0 17.51 7.8 17.51 17.38 0 9.56-7.87 17.38-17.51 17.38-9.63 0-17.51-7.82-17.51-17.38zm19.55-3.84l9.47 9.7c1.08-1.77 1.62-3.58 1.62-6.07 0-4.36-2.46-8.33-4.85-10.09l-1.43 1.45c1.14.9 1.95 1.87 2.69 3.1l-2.63 2.26c-.63-1.22-1.29-2.11-2.42-2.92l-2.45 2.57zm12 12.29c-1.71 2.88-4.3 5.15-7.39 6.51l-1.53-1.56-2.86-2.91c-.65.14-1.33.23-2.01.25v2.43h-3.27v-2.8c-4.92-1.32-8.31-5.89-8.25-10.86.01-.83.12-1.63.33-2.41l-1.62-1.63c-.48 1.34-.75 2.79-.81 4.32-.09 3.08 1.26 6.41 3.51 8.53L9.58 46.6c-2.78-3.1-4.3-6.59-4.3-10.79 0-6.13 3.38-11.47 8.7-14.43l3.81 3.95c1.26-.45 2.69-.68 4.01-.68 1.42.02 2.71.27 3.85.69l3.88-4c5.36 2.95 8.74 8.3 8.74 14.47 0 3.15-.84 5.99-2.43 8.53zm-17.07-3.3l-4.89-4.95c.12 2.78 1.82 5.39 4.89 6.56v-1.61zm7.15-15.15l-.13.13c-1.33-.5-2.56-.76-3.99-.78-1.43 0-2.82.27-4.16.78l-3.77-3.9C9.1 24.86 5.86 30 5.86 35.83c0 3.85 1.38 7.21 3.74 9.94l1.52-1.54c-1.31-1.35-3.39-4.56-3.27-8.56.16-4.53 2.04-8 5.55-10.85l2.26 2.33c-2.68 2.01-4.52 4.82-4.57 8.27-.06 5.02 3.42 9.21 8.25 10.41v2.68h2.11v-2.42c3.17-.02 6.18-1.24 8.27-3.65l-1.64-1.64c-1.59 1.75-4.19 3.15-6.64 3.03v-2.65h3.3v-1.85h-3.3v-2.1h3.35v-1.62h-5.46v7.87c-3.58-1.18-6.13-3.91-6.05-7.82.06-2.95 1.47-5.32 3.86-6.98l4.61 4.73 4.45-4.66c1.12.76 1.99 1.59 2.67 2.77l1.71-1.46c-.77-1.21-1.67-2.07-2.82-2.92l2.23-2.27c3.39 2.32 5.51 6.82 5.51 10.85 0 3.76-1.27 6.12-3.23 8.49l1.74 1.73c2.3-2.74 3.66-6.24 3.66-10.07 0-5.87-3.24-11.01-8.05-13.75l-3.7 3.77zm-6.67 1.81c.79-.18 1.6-.37 2.41-.33.87.03 1.66.18 2.49.41l-2.37 2.49-2.53-2.57zm1.15.34l1.37 1.39 1.28-1.34c-.46-.09-.93-.14-1.41-.15-.31-.01-.77.03-1.24.1zm10.18-11.68l.12.46.05.17.09-.05.44-.24-.11-.46-.02-.1-.57.22zm.87-.84c.34.12.63-.22.49-.53l-.09-.18c.6.18 1.04.18 1.56-.22.42.28.8.22 1.18-.07.37-.29.6-.85.16-1.22.34-.44.35-.92-.16-1.24.09-.15.15-.27.15-.45 0-.5-.38-.69-.79-.78.25-.19.45-.36.45-.71 0-.51-.4-.72-.84-.77.12-.18.21-.31.21-.54a.76.76 0 0 0-.76-.76c-.13 0-.26.04-.38.08.08-.17.15-.29.15-.49a.76.76 0 0 0-.76-.76c-.21 0-.33.07-.5.16.01-.09.04-.2.04-.29a.76.76 0 0 0-.76-.76c-.23 0-.37.09-.55.21-.09-.39-.31-.72-.77-.72-.34 0-.53.18-.7.44-.18-.2-.35-.33-.64-.33-.12 0-.23.03-.34.06.06-.15.11-.27.11-.43a.76.76 0 0 0-.76-.76c-.24 0-.38.1-.57.22.02-.09.04-.21.04-.31a.76.76 0 0 0-.76-.76c-.24 0-.38.1-.57.23-.09-.4-.31-.73-.77-.73-.28 0-.44.13-.63.31-.15-.31-.36-.55-.74-.55-.11 0-.2.03-.3.06-.24-.27-.44-.38-.78-.47v-.8h.64v-.44h-.64V.65h-.51v.57h-.66v.47h.64v.8c-.33.09-.54.21-.77.47a.765.765 0 0 0-.3-.06c-.39 0-.59.23-.74.55-.19-.18-.35-.31-.63-.31-.47 0-.68.33-.77.73-.19-.14-.33-.24-.58-.24a.76.76 0 0 0-.76.76c0 .1.03.22.05.31-.19-.12-.33-.22-.57-.22a.76.76 0 0 0-.76.76c0 .16.06.28.11.43-.11-.03-.22-.06-.34-.06-.29 0-.46.14-.64.33-.17-.26-.36-.44-.7-.44-.46 0-.68.33-.77.72-.18-.12-.32-.21-.55-.21a.76.76 0 0 0-.76.76c0 .09.02.2.04.29-.17-.09-.3-.16-.5-.16a.76.76 0 0 0-.76.76c0 .19.07.32.15.49-.13-.03-.25-.08-.38-.08a.76.76 0 0 0-.76.76c0 .23.09.36.21.54-.46.03-.86.25-.86.76 0 .35.19.52.44.71-.42.09-.79.28-.79.78 0 .18.06.3.15.45-.5.31-.5.79-.16 1.24-.73.6.38 1.94 1.34 1.29.52.4.96.4 1.56.22-.08.17-.18.32-.09.51.09.2.31.28.5.19 2.93-1.37 6.18-2.13 9.63-2.13s6.74.76 9.67 2.13zm-18.43.84l-.41-.15-.16-.05-.02.1-.12.45.44.24.1.06.04-.18.13-.47zm-.26.72l-.58-.32.14-.58c-.22-.03-.33-.29-.23-.46a.57.57 0 0 1-.6-.32c-.05-.1-.06-.21-.05-.32-.44.09-.9-.01-1.27-.27-1.03.61-2.24-.85-1.58-1.53-.29-.44-.22-.98.16-1.27a.937.937 0 0 1 .5-1.27.904.904 0 0 1-.24-.62c0-.44.31-.81.72-.91a.97.97 0 0 1-.08-.39c0-.52.42-.93.94-.93l.09.01a.93.93 0 0 1 .91-1.16c.1 0 .2.02.28.04 0-.51.42-.93.94-.93.16 0 .3.04.43.11a.943.943 0 0 1 1.61-.28c.16-.14.38-.23.62-.23h.06a.93.93 0 0 1 .92-1.13c.12 0 .24.02.35.07a.941.941 0 0 1 1.4-.8c.13-.36.48-.61.88-.61.22 0 .42.07.58.2.17-.26.46-.43.8-.43.09 0 .17.01.25.03.15-.16.34-.29.55-.37l.1-.03v-.51h-.64v-.83h.64V.47h.87v.57h.64v.83h-.64v.49l.1.03c.21.08.4.21.55.37.08-.02.16-.03.25-.03.34 0 .63.17.79.43.16-.12.36-.2.58-.2.41 0 .75.25.88.61.14-.07.29-.12.46-.12.52 0 .93.41.94.92a.937.937 0 0 1 1.29.86c0 .07-.01.13-.02.2h.07c.24 0 .45.09.62.23.17-.21.43-.34.73-.34.41 0 .75.26.88.62a.93.93 0 0 1 1.37.82c.09-.03.19-.04.29-.04.52 0 .94.42.94.93 0 .08-.01.16-.03.23H33c.52 0 .94.42.94.93 0 .14-.03.28-.09.4.41.1.72.47.72.91 0 .24-.09.46-.24.62a.934.934 0 0 1 .5 1.27c.38.29.45.83.16 1.27.42.43.06 1.11-.29 1.38-.34.27-.82.43-1.28.15-.36.26-.82.36-1.27.27.05.37-.28.7-.65.64.1.17-.01.43-.22.46l.14.58-.58.32c.08.09.1.23.04.34a.32.32 0 0 1-.43.17 20.322 20.322 0 0 0-8.65-1.91c-3.1 0-6.02.68-8.65 1.91-.17.08-.35-.01-.43-.17a.305.305 0 0 1 .04-.34zm.4-.8l-.18.71.06.12c-.03.02-.07.03-.1.06-.05.05-.09.1-.05.18.04.08.12.11.19.08 2.65-1.24 5.6-1.93 8.73-1.93 3.13 0 6.08.69 8.73 1.93.14.06.36-.17.03-.32l.06-.12-.18-.71.62-.23.05-.1c.05.02.09.03.13.04.17.02.16-.17.07-.21-2.89-1.35-6.1-2.1-9.5-2.1-3.4 0-6.62.75-9.5 2.1-.08.04-.09.23.07.21.03 0 .08-.01.13-.04l.05.1.59.23zm14.28-8.27c-.74-1.85-2.48-3.19-4.81-3.06 0 .16-.05.32-.13.44v.63a.813.813 0 0 1 0 .88v.4c1.6-.21 3.47-.05 4.94.71zm-4.94-.47a.81.81 0 0 1-.18 1.08c.28.1.5.3.59.68.57.14.72.56.72 1.02 0 .55-.22 1.02-1.03 1.06a.75.75 0 1 0 1.42.02c-.01-.08-.02-.16-.02-.24 0-.52.42-.94.95-.94.52 0 .94.42.94.94 0 .16-.04.31-.11.45.02.31.24.59.56.68.32.08.65-.06.82-.33-.77-.24-.87-.75-.73-1.28.12-.45.37-.82.96-.81.11-.21.25-.34.42-.42-.07-.45-.17-.87-.31-1.27-1.5-.83-3.47-.98-5-.75v.11zm-1.36-2.58c0 .15.05.27.13.39v.74c-.08.12-.13.24-.13.39 0 .15.05.27.13.39v.74c-.08.12-.13.24-.13.39 0 .43.32.57.65.71.33-.15.65-.28.65-.71a.67.67 0 0 0-.11-.37l-.02-.76c.08-.12.13-.24.13-.39 0-.15-.05-.27-.13-.39v-.75c.08-.12.13-.24.13-.39 0-.06-.01-.11-.02-.17 3.06-.22 5.25 1.84 5.55 4.76-.27.11-.37.23-.5.49-.53-.03-.77.18-.89.67-.18.69.15.95.81 1.12-.2.45-.6.75-1.12.61a.928.928 0 0 1-.7-.89c.07-.13.12-.25.12-.4a.76.76 0 0 0-.76-.76c-.42 0-.77.34-.77.76 0 .08.02.16.04.24-.12.4-.46.68-.89.68-.54 0-.85-.39-.93-.87.68 0 1.07-.18 1.07-.89 0-.5-.18-.77-.7-.87-.12-.63-.44-.67-.97-.75-.53.09-.85.13-.97.75-.52.1-.7.37-.7.87 0 .71.39.88 1.07.89-.08.48-.39.87-.93.87-.43 0-.77-.28-.9-.68.02-.08.04-.16.04-.24 0-.42-.34-.76-.77-.76-.42 0-.77.34-.77.76 0 .15.04.28.12.4-.01.42-.27.79-.69.89-.52.13-.92-.17-1.12-.61.66-.17.99-.44.81-1.12-.13-.49-.37-.7-.89-.67-.12-.27-.22-.39-.5-.49.3-2.92 2.49-4.99 5.55-4.76.02.06.01.12.01.18zm-5.05 3.22c-.14.4-.24.82-.29 1.26.17.08.31.22.42.42.59-.01.84.36.96.81.14.53.04 1.04-.73 1.28a.745.745 0 1 0 1.38-.35.936.936 0 0 1-.11-.45c0-.52.42-.94.94-.94a.947.947 0 0 1 .92 1.18.75.75 0 0 0 1.42-.02c-.81-.04-1.03-.51-1.03-1.06 0-.46.16-.88.72-1.02.09-.37.31-.58.59-.68a.81.81 0 0 1-.18-1.08v-.1c-1.53-.22-3.5-.08-5.01.75zm4.87-3.22c-2.33-.13-4.06 1.2-4.8 3.06 1.46-.75 3.34-.93 4.93-.7v-.4a.813.813 0 0 1 0-.88V5.4a.84.84 0 0 1-.13-.44zm9.47 8.5l.05-.04c.1.08.19.13.32.17l.16.03c.06.33.18.6.41.84l-.1.14c-.55-.24-1.12-.47-1.7-.67l.02-.17c.31-.03.6-.13.84-.3zm.05.18c-.16.11-.34.19-.52.24.36.13.72.27 1.08.42-.1-.16-.18-.34-.22-.53l-.06-.01c-.1-.03-.19-.07-.28-.12zm-8.77-2.27h.18c.07.49.38.89.81 1.09l-.04.17c-.28-.01-.57-.02-.86-.02s-.57.01-.86.02l-.04-.17c.43-.2.74-.61.81-1.09zm.09.36c-.11.28-.29.53-.53.71.17 0 .35-.01.53-.01.18 0 .35 0 .53.01-.24-.18-.42-.42-.53-.71zm-9.48 2.87l-.1-.14c.23-.25.35-.51.41-.84.22-.03.3-.05.49-.19.27.2.54.31.88.33l.02.17c-.58.2-1.15.42-1.7.67zm.24-.3c.35-.15.71-.29 1.08-.42-.19-.05-.37-.13-.52-.24-.08.05-.18.1-.28.12l-.06.01c-.05.19-.12.37-.22.53zm4.23-1.33v.17c-.55.12-1.1.26-1.64.41l-.08-.15c.36-.3.55-.77.5-1.25l.17-.04c.18.45.58.77 1.05.86zm-.37.08c-.27-.12-.51-.31-.68-.55-.03.3-.15.58-.33.81.34-.1.68-.19 1.01-.26zm1.53-.12l-.06-.16c.33-.21.53-.49.66-.85h.11c.1 0 .19-.02.28-.05.22.32.49.54.86.66l-.02.17c-.62.05-1.23.13-1.83.23zm.72-.84c-.09.23-.23.43-.41.6.38-.06.77-.11 1.16-.14-.22-.12-.41-.29-.55-.48-.07.01-.13.02-.2.02zm5.15.61l-.02-.17c.37-.12.64-.34.86-.66.1.03.18.05.28.05h.11c.13.36.33.64.66.85l-.06.16c-.6-.1-1.22-.18-1.83-.23zm1.1-.61c-.06 0-.13-.01-.19-.02-.15.2-.34.36-.55.48.39.04.77.09 1.16.14-.17-.16-.3-.35-.4-.56l-.02-.04zm3.61 1.32l-.08.15c-.54-.16-1.08-.3-1.64-.41v-.17c.46-.1.86-.41 1.05-.86l.17.04c-.05.48.14.95.5 1.25zm-.35-.11c-.18-.23-.29-.51-.33-.81-.17.25-.41.44-.68.55.34.08.68.17 1.01.26zm.26-3.07a.76.76 0 0 0-.92.54c-.1.4.14.81.54.91.41.1.82-.14.92-.54a.75.75 0 0 0-.54-.91zm.03-.12c.47.12.75.59.63 1.06-.12.47-.6.75-1.07.63a.867.867 0 0 1-.63-1.06c.12-.46.6-.75 1.07-.63zm.65-1.35c-.23 0-.42.19-.42.42 0 .23.19.42.42.42.23 0 .42-.19.42-.42 0-.23-.18-.42-.42-.42zm0-.12c.3 0 .54.24.54.54 0 .3-.24.54-.54.54-.3 0-.54-.24-.54-.54 0-.3.25-.54.54-.54zm-.35-1.38c-.23 0-.42.19-.42.42 0 .23.19.42.42.42.23 0 .42-.19.42-.42a.41.41 0 0 0-.42-.42zm0-.12c.3 0 .54.24.54.54 0 .3-.24.54-.54.54s-.54-.24-.54-.54.25-.54.54-.54zm5.21 4.06c-.23 0-.42.19-.42.42 0 .23.19.42.42.42.23 0 .42-.19.42-.42 0-.23-.19-.42-.42-.42zm0-.12c.3 0 .54.24.54.54 0 .3-.24.54-.54.54-.3 0-.54-.24-.54-.54 0-.3.24-.54.54-.54zm-.35-1.37c-.23 0-.42.19-.42.42 0 .23.19.42.42.42.23 0 .42-.19.42-.42 0-.23-.19-.42-.42-.42zm0-.12c.3 0 .54.24.54.54 0 .3-.24.54-.54.54-.3 0-.54-.24-.54-.54 0-.3.24-.54.54-.54zM33 8.4c-.23 0-.42.19-.42.42s.19.41.42.41c.23 0 .42-.19.42-.42s-.19-.41-.42-.41zm0-.12c.3 0 .54.24.54.54 0 .3-.24.54-.54.54-.3 0-.54-.24-.54-.54 0-.3.24-.54.54-.54zm-.99-1.04c-.23 0-.42.19-.42.42s.19.42.42.42c.23 0 .42-.19.42-.42s-.19-.42-.42-.42zm0-.12c.3 0 .54.24.54.54 0 .3-.24.54-.54.54-.3 0-.54-.24-.54-.54-.01-.3.24-.54.54-.54zm-1.23-.77c-.23 0-.42.19-.42.42 0 .23.19.42.42.42.23 0 .42-.19.42-.42 0-.23-.19-.42-.42-.42zm0-.12c.3 0 .54.24.54.54 0 .3-.24.54-.54.54-.3 0-.54-.24-.54-.54 0-.3.24-.54.54-.54zm-1.32-.39c-.23 0-.42.19-.42.42 0 .23.19.42.42.42.23 0 .42-.19.42-.42 0-.23-.19-.42-.42-.42zm0-.12c.3 0 .54.24.54.54 0 .3-.24.54-.54.54-.3 0-.54-.24-.54-.54 0-.3.24-.54.54-.54zm-1.34.23c-.23 0-.42.19-.42.42 0 .23.19.42.42.42.23 0 .42-.19.42-.42a.43.43 0 0 0-.42-.42zm0-.12c.3 0 .54.24.54.54 0 .3-.24.54-.54.54-.3 0-.54-.24-.54-.54-.01-.3.24-.54.54-.54zm-.99-1.01c-.23 0-.42.19-.42.42 0 .23.19.42.42.42.23 0 .42-.19.42-.42 0-.23-.19-.42-.42-.42zm0-.12c.3 0 .54.24.54.54 0 .3-.24.54-.54.54-.3 0-.54-.24-.54-.54 0-.29.24-.54.54-.54zm-1.29-.73c-.23 0-.42.19-.42.42 0 .23.19.42.42.42.23 0 .42-.19.42-.42 0-.23-.19-.42-.42-.42zm0-.12c.3 0 .54.24.54.54 0 .3-.24.54-.54.54-.3 0-.54-.24-.54-.54 0-.3.24-.54.54-.54zm-1.34-.37c-.23 0-.42.19-.42.42 0 .23.19.42.42.42.23 0 .42-.19.42-.42s-.19-.42-.42-.42zm0-.12c.3 0 .54.24.54.54s-.24.53-.54.53c-.3 0-.54-.24-.54-.54s.24-.53.54-.53zm-1.37-.12c-.23 0-.42.19-.42.42 0 .23.19.42.42.42.23 0 .42-.19.42-.42 0-.23-.19-.42-.42-.42zm0-.12c.3 0 .54.24.54.54 0 .3-.24.54-.54.54-.3 0-.54-.24-.54-.54 0-.3.24-.54.54-.54zm-12.99 11.1c.37-.2.5-.66.3-1.02s-.66-.5-1.03-.3c-.36.2-.5.65-.3 1.02.21.37.67.5 1.03.3zm.06.11a.88.88 0 0 1-1.19-.34.864.864 0 0 1 .35-1.18.88.88 0 0 1 1.19.34c.23.42.08.95-.35 1.18zm5.33-2.65c.4-.1.65-.51.54-.91a.76.76 0 0 0-.92-.54c-.4.1-.65.51-.54.91.11.41.52.65.92.54zm.03.12a.878.878 0 0 1-1.07-.63c-.12-.47.16-.94.63-1.06.47-.12.95.16 1.07.63.12.47-.16.94-.63 1.06zm6.24-.9c.42 0 .76-.34.76-.75s-.34-.75-.76-.75-.76.34-.76.75.34.75.76.75zm0 .12a.88.88 0 0 1-.88-.87c0-.48.39-.87.88-.87.48 0 .88.39.88.87-.01.48-.4.87-.88.87zm-7.33-1.43c.23 0 .42-.19.42-.42 0-.23-.19-.42-.42-.42-.23 0-.42.19-.42.42 0 .24.19.42.42.42zm0 .12c-.3 0-.54-.24-.54-.54 0-.3.24-.54.54-.54.3 0 .54.24.54.54 0 .3-.24.54-.54.54zm.35-1.61c.23 0 .42-.19.42-.42 0-.23-.19-.42-.42-.42-.23 0-.42.19-.42.42 0 .23.19.42.42.42zm0 .12c-.3 0-.54-.24-.54-.54s.24-.54.54-.54.54.24.54.54c0 .3-.24.54-.54.54zm-5.2 3.82c.23 0 .42-.19.42-.42 0-.23-.19-.42-.42-.42-.23 0-.42.19-.42.42 0 .23.19.42.42.42zm0 .11c-.3 0-.54-.24-.54-.54 0-.3.24-.54.54-.54.3 0 .54.24.54.54 0 .31-.24.54-.54.54zm.35-1.61c.23 0 .42-.19.42-.42 0-.23-.19-.42-.42-.42-.23 0-.42.19-.42.42 0 .24.18.42.42.42zm0 .12c-.3 0-.54-.24-.54-.54 0-.3.24-.54.54-.54.3 0 .54.24.54.54 0 .3-.25.54-.54.54zm.62-1.43c.23 0 .42-.19.42-.42s-.18-.41-.42-.41c-.23 0-.42.19-.42.42s.19.41.42.41zm0 .12c-.3 0-.54-.24-.54-.54 0-.3.24-.54.54-.54.3 0 .54.24.54.54 0 .3-.24.54-.54.54zm1-1.28c.23 0 .42-.19.42-.42s-.19-.42-.42-.42c-.23 0-.42.19-.42.42s.19.42.42.42zm0 .12c-.3 0-.54-.24-.54-.54 0-.3.24-.54.54-.54.3 0 .54.24.54.54 0 .3-.24.54-.54.54zm1.23-1c.23 0 .42-.19.42-.42 0-.23-.19-.42-.42-.42-.23 0-.42.19-.42.42 0 .23.18.42.42.42zm0 .12c-.3 0-.54-.24-.54-.54 0-.3.24-.54.54-.54.3 0 .54.24.54.54 0 .3-.24.54-.54.54zm1.31-.64c.23 0 .42-.19.42-.42 0-.23-.19-.42-.42-.42-.23 0-.42.19-.42.42 0 .24.19.42.42.42zm0 .12c-.3 0-.54-.24-.54-.54 0-.3.24-.54.54-.54.3 0 .54.24.54.54.01.3-.24.54-.54.54zm1.35 0c.23 0 .42-.19.42-.42 0-.23-.19-.42-.42-.42-.23 0-.42.19-.42.42 0 .23.19.42.42.42zm0 .12c-.3 0-.54-.24-.54-.54 0-.3.24-.54.54-.54.3 0 .54.24.54.54 0 .3-.24.54-.54.54zm.99-1.25c.23 0 .42-.19.42-.42 0-.23-.19-.42-.42-.42-.23 0-.42.19-.42.42-.01.23.18.42.42.42zm0 .12c-.3 0-.54-.24-.54-.54 0-.3.24-.54.54-.54.3 0 .54.24.54.54 0 .3-.25.54-.54.54zm1.28-.97c.23 0 .42-.19.42-.42 0-.23-.19-.42-.42-.42-.23 0-.42.19-.42.42 0 .23.19.42.42.42zm0 .12c-.3 0-.54-.24-.54-.54 0-.3.24-.54.54-.54.3 0 .54.24.54.54 0 .3-.24.54-.54.54zm1.34-.62c.23 0 .42-.19.42-.42 0-.23-.19-.42-.42-.42-.23 0-.42.19-.42.42s.19.42.42.42zm0 .12c-.3 0-.54-.24-.54-.54s.24-.54.54-.54c.3 0 .54.24.54.54s-.24.54-.54.54zM21.8 8.4c.23 0 .42-.19.42-.42 0-.23-.19-.42-.42-.42-.23 0-.42.19-.42.42 0 .23.19.42.42.42zm0 .12c-.3 0-.54-.24-.54-.54 0-.3.24-.54.54-.54.3 0 .54.24.54.54 0 .3-.24.54-.54.54zm0-1.63c.23 0 .42-.19.42-.42 0-.23-.19-.42-.42-.42-.23 0-.42.19-.42.42 0 .23.19.42.42.42zm0 .12c-.3 0-.54-.24-.54-.54 0-.3.24-.54.54-.54.3 0 .54.24.54.54 0 .3-.24.54-.54.54zm0-1.64c.23 0 .42-.19.42-.42 0-.23-.19-.42-.42-.42-.23 0-.42.19-.42.42 0 .24.19.42.42.42zm0 .12c-.3 0-.54-.24-.54-.54 0-.3.24-.54.54-.54.3 0 .54.24.54.54 0 .3-.24.54-.54.54zm-1.33-1.41c.23 0 .42-.19.42-.42 0-.23-.19-.42-.42-.42-.23 0-.42.19-.42.42-.01.23.18.42.42.42zm0 .12c-.3 0-.54-.24-.54-.54 0-.3.24-.54.54-.54.3 0 .54.24.54.54a.55.55 0 0 1-.54.54zm13.71 8.71a.747.747 0 0 0-1.02.3c-.2.36-.07.82.3 1.02.37.2.83.07 1.03-.29.19-.38.05-.83-.31-1.03zm.06-.11c.43.23.58.76.35 1.18a.88.88 0 0 1-1.19.34.86.86 0 0 1-.34-1.18c.22-.42.75-.57 1.18-.34zm-23.03.3c-.11-.3-.26-.52-.58-.61.2-2.58.87-3.76 3.22-4.94.2.07.2.1.2.14 0 .35.2.52.45.71-.42.09-.79.28-.79.78 0 .42.28.65.65.75-.12.23-.14.33-.12.59-.48.23-.58.53-.46 1.01.18.69.6.76 1.26.59.1 1.07-1.09 1.48-1.67.71 0-.06-.01-.12-.02-.19a.769.769 0 0 0-.93-.55c-.41.1-.66.52-.55.93.03.13.1.24.19.34.04.38-.13.74-.47.92-.35.19-.62.11-.96-.01.55-.26.83-.52.58-1.17zm.04-2.79c-.23.58-.35 1.24-.42 2.05.28.12.45.4.56.68.16.43.17.87-.3 1.2.14.01.28-.02.41-.09.26-.14.4-.42.39-.69a.93.93 0 0 1-.19-.37.94.94 0 0 1 .68-1.14.939.939 0 0 1 1.15.68l.03.16c.43.52 1.29.25 1.33-.43-.79.16-1.13-.24-1.26-.77-.12-.45-.07-.89.45-1.17 0-.14.02-.27.06-.38a.945.945 0 0 1-.56-.68c-.45.1-.96.23-1.38.39-.42.16-.73.36-.95.56zm2.63-2.57c-1.31.68-2.08 1.37-2.53 2.34.24-.18.5-.32.78-.43.42-.16.95-.3 1.4-.4v-.06c0-.39.24-.73.59-.87a.945.945 0 0 1-.24-.58zm18.14 6.56c-.35-.19-.51-.54-.47-.92.09-.1.15-.21.19-.34a.76.76 0 0 0-.55-.93c-.41-.1-.83.14-.93.55-.02.06-.02.12-.02.19-.58.77-1.77.36-1.67-.71.66.16 1.08.09 1.26-.59.13-.49.02-.79-.46-1.01.02-.27 0-.36-.12-.59.36-.11.65-.34.65-.76 0-.5-.38-.69-.8-.78.25-.19.45-.36.45-.71 0-.03 0-.06-.01-.09l.17-.05c2.34 1.16 3.06 2.38 3.26 4.94-.32.1-.46.32-.58.61-.25.65.04.91.6 1.19-.35.11-.62.19-.97 0zm-1.97-4.94c-.06.31-.28.56-.56.68.04.11.06.24.06.38.52.27.56.72.45 1.17-.14.53-.47.93-1.26.77.04.68.9.95 1.33.43 0-.05.01-.11.03-.16.13-.5.65-.81 1.15-.68a.933.933 0 0 1 .49 1.51c-.03.45.35.81.79.78-.47-.33-.47-.77-.3-1.2.11-.28.28-.56.55-.68-.07-.81-.19-1.48-.42-2.06-.22-.19-.53-.4-.92-.55-.43-.16-.94-.29-1.39-.39zm-.33-1.65c-.01.23-.1.44-.24.6.35.14.59.48.59.87v.06c.47.1.96.23 1.4.4.31.12.57.28.78.43-.45-.96-1.22-1.66-2.53-2.36zm-2.74 8.05l-1.33-.92 1.61-.17 1.33.92-1.61.17zm-2.49-.54c-.3 0-.54-.24-.54-.54 0-.3.24-.54.54-.54.3 0 .54.24.54.54.01.3-.24.54-.54.54zm0-.12c.23 0 .42-.19.42-.42 0-.23-.19-.42-.42-.42-.23 0-.42.19-.42.42 0 .23.19.42.42.42zM13.9 16.5c.23 0 .42-.19.42-.42 0-.23-.19-.42-.42-.42-.23 0-.42.19-.42.42 0 .23.19.42.42.42zm0 .11c-.3 0-.54-.24-.54-.54 0-.3.24-.54.54-.54.3 0 .54.24.54.54 0 .31-.24.54-.54.54zm5.2-1.51c.23 0 .42-.19.42-.42 0-.23-.19-.42-.42-.42-.23 0-.42.19-.42.42 0 .23.19.42.42.42zm0 .12c-.3 0-.54-.24-.54-.54 0-.3.24-.54.54-.54.3 0 .54.24.54.54 0 .3-.24.54-.54.54zm10.59 1.28c.23 0 .42-.19.42-.42 0-.23-.19-.42-.42-.42-.23 0-.42.19-.42.42 0 .23.19.42.42.42zm0 .11c-.3 0-.54-.24-.54-.54 0-.3.24-.54.54-.54.3 0 .54.24.54.54 0 .31-.24.54-.54.54zm-13.08-.85L15 15.59l1.33-.92 1.61.17-1.33.92zm6.53-1.21l-1.35-.5-1.35.5 1.35.5 1.35-.5zm.35 0l-1.69.63-1.69-.63 1.69-.63 1.69.63zM171.82 26.87v17.8h-3.36v-1.66c-.88 1.49-2.4 2.01-3.82 2.01-3.86 0-5.47-3.47-5.47-7.09 0-4.56 2.54-6.79 5.39-6.79 2.21 0 3.24 1.22 3.77 2.06l.05-6.32h3.44zm-9.13 11.31c0 1.56.61 3.99 2.82 3.99 2.18 0 3.04-1.83 3.04-3.79 0-2.1-.58-4.24-2.94-4.24-2.19 0-2.92 1.96-2.92 4.04zM54.18 28.93v6.04h5.5c1.74 0 3.57-.45 3.57-3.07 0-2.75-1.98-2.97-3.15-2.97h-5.92zm0 8.1v7.64H51.8v-17.8h8.12c2.88 0 5.77 1.01 5.77 4.78 0 2.62-1.32 3.59-2.43 4.26 1 .42 2.01.87 2.1 3.35l.15 3.23c.02.99.15 1.36.88 1.78v.4h-2.91c-.34-1.09-.42-3.8-.42-4.47 0-1.47-.29-3.18-3.14-3.18h-5.74zm15.68.15h7.12c-.12-2.02-.95-3.89-3.57-3.89-1.99 0-3.55 1.87-3.55 3.89zm7.02 3.44h2.14c-.07.62-.66 2.45-2.27 3.54-.59.4-1.42.9-3.47.9-3.6 0-5.73-2.75-5.73-6.49 0-4.03 1.91-7.22 6.14-7.22 3.7 0 5.5 2.97 5.5 7.57h-9.34c0 2.7 1.25 4.26 3.72 4.26 2.04-.01 3.23-1.6 3.31-2.56zm11.95-.43v-2.14c-.34.27-.88.47-3.54.82-1.05.15-2.74.47-2.74 2.11 0 1.41.71 2.26 2.32 2.26 2 0 3.96-1.31 3.96-3.05zm-5.91-4.54h-1.97c.1-3.1 2.12-4.31 5.28-4.31 1.03 0 4.74.3 4.74 3.61v7.47c0 .55.27.77.71.77.2 0 .46-.05.71-.1v1.58c-.37.1-.69.25-1.17.25-1.9 0-2.2-.99-2.27-1.98-.83.92-2.13 2.11-4.62 2.11-2.35 0-4.01-1.51-4.01-3.74 0-1.09.32-3.63 3.88-4.07l3.55-.45c.52-.05 1.13-.25 1.13-1.54 0-1.36-.98-2.11-3.01-2.11-2.46 0-2.8 1.51-2.95 2.51zm13.16-8.78v17.8h-2.14v-17.8h2.14zm20.89 17.81h-3.43v-8c0-1.96-.85-2.6-1.86-2.6-1.71 0-2.31 1.14-2.31 2.7v7.91h-3.43v-7.93c0-1.11 0-2.68-2.05-2.68-1.61 0-2.12 1.14-2.12 2.58v8.03h-3.43v-13.2h3.28v1.93c.49-.87 1.44-2.28 3.73-2.28 1.88 0 2.74.7 3.62 2.11.44-.65 1.39-2.11 3.47-2.11 2.54 0 4.52 1.51 4.52 4.42v9.12zm9.33-4.74v-1.68c-.35.27-.91.5-2.33.71-1.27.22-2.32.55-2.32 1.98 0 1.22.93 1.59 1.59 1.59 1.52 0 3.06-.99 3.06-2.6zm3.35-4.98v7.14c0 1.56.34 1.91.76 2.06v.52h-3.7c-.2-.62-.24-.82-.32-1.56-.78.82-1.88 1.91-4.21 1.91-1.96 0-3.97-1.12-3.97-3.85 0-2.58 1.62-3.89 3.8-4.21l3.08-.47c.54-.07 1.2-.3 1.2-1.04 0-1.46-1.37-1.54-2.26-1.54-1.71 0-2.01 1.07-2.1 1.83h-3.31c.39-4.04 3.16-4.61 5.83-4.61 1.85 0 5.2.57 5.2 3.82zm4.79 3.22c0 1.56.61 3.99 2.82 3.99 2.18 0 3.04-1.83 3.04-3.79 0-2.1-.59-4.24-2.94-4.24-2.18 0-2.92 1.96-2.92 4.04zm9.14-11.31v17.8h-3.35v-1.66c-.88 1.49-2.4 2.01-3.82 2.01-3.86 0-5.47-3.47-5.47-7.09 0-4.56 2.53-6.79 5.39-6.79 2.21 0 3.23 1.22 3.77 2.06l.05-6.32h3.43zm2.03 4.62h3.28v2.28c.76-1.34 1.54-2.63 3.62-2.63.22 0 .44.02.66.05v3.54c-.29-.05-.66-.05-.98-.05-2.67 0-3.16 1.68-3.16 3.14v6.86h-3.43V31.49zm12.06 0v13.19h-3.43V31.49h3.43zm0-4.79v3.23h-3.43V26.7h3.43z"/></svg>